<svg width="19" height="19" viewBox="0 0 19 19" fill="none" xmlns="http://www.w3.org/2000/svg">
<path d="M1.97919 3.36462C1.97919 3.20715 2.04174 3.05613 2.15309 2.94478C2.26444 2.83343 2.41546 2.77087 2.57294 2.77087H3.01469C3.76677 2.77087 4.21802 3.27675 4.47531 3.747C4.6471 4.0605 4.7714 4.42387 4.86877 4.75321C4.89511 4.75113 4.92152 4.75007 4.94794 4.75004H14.8422C15.4993 4.75004 15.9743 5.37862 15.7938 6.01117L14.3466 11.085C14.2169 11.5401 13.9424 11.9405 13.5647 12.2256C13.187 12.5107 12.7267 12.665 12.2534 12.6651H7.5446C7.06762 12.6651 6.60383 12.5085 6.22452 12.2193C5.84521 11.9301 5.57137 11.5243 5.4451 11.0644L4.84344 8.86987L3.84594 5.50687L3.84515 5.50054C3.72165 5.05167 3.60606 4.63129 3.43348 4.31779C3.26802 4.013 3.13502 3.95837 3.01548 3.95837H2.57294C2.41546 3.95837 2.26444 3.89582 2.15309 3.78447C2.04174 3.67312 1.97919 3.5221 1.97919 3.36462ZM5.99531 8.58171L6.58985 10.7501C6.7086 11.1792 7.0989 11.4776 7.5446 11.4776H12.2534C12.4685 11.4776 12.6778 11.4075 12.8495 11.278C13.0212 11.1484 13.146 10.9664 13.205 10.7596L14.5801 5.93754H5.21315L5.98423 8.53975L5.99531 8.58171Z" fill="#2F1AC4"/>
<path d="M8.70835 15.0417C8.70835 15.4616 8.54154 15.8644 8.24461 16.1613C7.94767 16.4582 7.54495 16.625 7.12502 16.625C6.70509 16.625 6.30237 16.4582 6.00543 16.1613C5.7085 15.8644 5.54169 15.4616 5.54169 15.0417C5.54169 14.6218 5.7085 14.2191 6.00543 13.9221C6.30237 13.6252 6.70509 13.4584 7.12502 13.4584C7.54495 13.4584 7.94767 13.6252 8.24461 13.9221C8.54154 14.2191 8.70835 14.6218 8.70835 15.0417ZM7.52085 15.0417C7.52085 14.9367 7.47915 14.836 7.40492 14.7618C7.33068 14.6876 7.23 14.6459 7.12502 14.6459C7.02004 14.6459 6.91936 14.6876 6.84512 14.7618C6.77089 14.836 6.72919 14.9367 6.72919 15.0417C6.72919 15.1467 6.77089 15.2474 6.84512 15.3216C6.91936 15.3958 7.02004 15.4375 7.12502 15.4375C7.23 15.4375 7.33068 15.3958 7.40492 15.3216C7.47915 15.2474 7.52085 15.1467 7.52085 15.0417Z" fill="#2F1AC4"/>
<path d="M14.25 15.0417C14.25 15.4616 14.0832 15.8644 13.7863 16.1613C13.4894 16.4582 13.0866 16.625 12.6667 16.625C12.2468 16.625 11.8441 16.4582 11.5471 16.1613C11.2502 15.8644 11.0834 15.4616 11.0834 15.0417C11.0834 14.6218 11.2502 14.2191 11.5471 13.9221C11.8441 13.6252 12.2468 13.4584 12.6667 13.4584C13.0866 13.4584 13.4894 13.6252 13.7863 13.9221C14.0832 14.2191 14.25 14.6218 14.25 15.0417ZM13.0625 15.0417C13.0625 14.9367 13.0208 14.836 12.9466 14.7618C12.8724 14.6876 12.7717 14.6459 12.6667 14.6459C12.5617 14.6459 12.461 14.6876 12.3868 14.7618C12.3126 14.836 12.2709 14.9367 12.2709 15.0417C12.2709 15.1467 12.3126 15.2474 12.3868 15.3216C12.461 15.3958 12.5617 15.4375 12.6667 15.4375C12.7717 15.4375 12.8724 15.3958 12.9466 15.3216C13.0208 15.2474 13.0625 15.1467 13.0625 15.0417Z" fill="#2F1AC4"/>
</svg>
