<svg width="15" height="15" viewBox="0 0 15 15" fill="none" xmlns="http://www.w3.org/2000/svg">
<path d="M13.28 2.26545C12.5279 1.5132 11.5309 1.05585 10.4702 0.976551C9.40945 0.897256 8.35549 1.20129 7.49997 1.83336C6.59873 1.16302 5.47697 0.85906 4.36058 0.982682C3.2442 1.10631 2.21612 1.64833 1.48337 2.49961C0.750622 3.35089 0.367637 4.44819 0.411539 5.57054C0.45544 6.69289 0.922967 7.75692 1.71997 8.54836L6.99706 13.8254C7.0629 13.8918 7.14125 13.9445 7.22756 13.9805C7.31388 14.0165 7.40646 14.035 7.49997 14.035C7.59348 14.035 7.68606 14.0165 7.77238 13.9805C7.8587 13.9445 7.93704 13.8918 8.00289 13.8254L13.28 8.54836C13.6927 8.13592 14.0201 7.64619 14.2435 7.10716C14.4668 6.56814 14.5818 5.99038 14.5818 5.40691C14.5818 4.82343 14.4668 4.24567 14.2435 3.70665C14.0201 3.16762 13.6927 2.67789 13.28 2.26545ZM12.2812 7.54961L7.49997 12.3238L2.71872 7.54961C2.29739 7.12653 2.01037 6.58844 1.89368 6.00285C1.77698 5.41727 1.83581 4.81026 2.06277 4.25798C2.28974 3.7057 2.67473 3.23274 3.16947 2.89843C3.6642 2.56412 4.24664 2.38334 4.84372 2.37878C5.64139 2.38073 6.40567 2.69919 6.96872 3.2642C7.03457 3.33059 7.11291 3.38328 7.19923 3.41925C7.28555 3.45521 7.37813 3.47372 7.47164 3.47372C7.56515 3.47372 7.65773 3.45521 7.74405 3.41925C7.83036 3.38328 7.90871 3.33059 7.97456 3.2642C8.5542 2.76191 9.30303 2.49859 10.0695 2.52755C10.8359 2.5565 11.5628 2.87557 12.1029 3.42016C12.6429 3.96476 12.956 4.69421 12.9786 5.46087C13.0012 6.22754 12.7316 6.97416 12.2246 7.54961H12.2812Z" fill="#2F1AC4"/>
</svg>
