<svg width="24" height="24" viewBox="0 0 24 24" fill="none" xmlns="http://www.w3.org/2000/svg">
<g clip-path="url(#clip0_2_22)">
<g filter="url(#filter0_d_2_22)">
<path d="M21.7099 20.2899L17.9999 16.6099C19.44 14.8143 20.1374 12.5352 19.9487 10.2412C19.76 7.94721 18.6996 5.81269 16.9854 4.27655C15.2713 2.74041 13.0337 1.91941 10.7328 1.98237C8.43194 2.04534 6.24263 2.98747 4.61505 4.61505C2.98747 6.24263 2.04534 8.43194 1.98237 10.7328C1.91941 13.0337 2.74041 15.2713 4.27655 16.9854C5.81269 18.6996 7.94721 19.76 10.2412 19.9487C12.5352 20.1374 14.8143 19.44 16.6099 17.9999L20.2899 21.6799C20.3829 21.7736 20.4935 21.848 20.6153 21.8988C20.7372 21.9496 20.8679 21.9757 20.9999 21.9757C21.1319 21.9757 21.2626 21.9496 21.3845 21.8988C21.5063 21.848 21.6169 21.7736 21.7099 21.6799C21.8901 21.4934 21.9909 21.2442 21.9909 20.9849C21.9909 20.7256 21.8901 20.4764 21.7099 20.2899ZM10.9999 17.9999C9.61544 17.9999 8.26206 17.5894 7.11091 16.8202C5.95977 16.051 5.06256 14.9578 4.53275 13.6787C4.00293 12.3996 3.86431 10.9921 4.13441 9.63427C4.4045 8.27641 5.07119 7.02912 6.05016 6.05016C7.02912 5.07119 8.27641 4.4045 9.63427 4.13441C10.9921 3.86431 12.3996 4.00293 13.6787 4.53275C14.9578 5.06256 16.051 5.95977 16.8202 7.11091C17.5894 8.26206 17.9999 9.61544 17.9999 10.9999C17.9999 12.8564 17.2624 14.6369 15.9497 15.9497C14.6369 17.2624 12.8564 17.9999 10.9999 17.9999Z" fill="url(#paint0_linear_2_22)"/>
<path d="M10.7466 2.48193C12.9196 2.42249 15.033 3.19815 16.6519 4.64893C18.2706 6.09962 19.2724 8.11538 19.4507 10.2817C19.6289 12.4483 18.97 14.6015 17.6099 16.2974L17.3286 16.6479L17.6479 16.9653L21.3491 20.6372H21.3501C21.4402 20.7304 21.4907 20.8552 21.4907 20.9849C21.4907 21.1135 21.4408 21.2366 21.3521 21.3296C21.3061 21.3754 21.2518 21.412 21.1919 21.437C21.131 21.4623 21.0655 21.4761 20.9995 21.4761C20.9336 21.476 20.8679 21.4623 20.8071 21.437C20.7464 21.4116 20.6914 21.3744 20.645 21.3276L20.6431 21.3267L16.9634 17.646L16.647 17.3296L16.2974 17.6099C14.6015 18.97 12.4483 19.6289 10.2817 19.4507C8.11538 19.2724 6.09962 18.2706 4.64893 16.6519C3.19815 15.033 2.42249 12.9196 2.48193 10.7466C2.5414 8.57352 3.4311 6.50542 4.96826 4.96826C6.50542 3.4311 8.57352 2.5414 10.7466 2.48193ZM13.8696 4.0708C12.4993 3.50326 10.9914 3.35468 9.53662 3.64404C8.08181 3.93345 6.74565 4.64791 5.69678 5.69678C4.64791 6.74565 3.93345 8.08181 3.64404 9.53662C3.35468 10.9914 3.50326 12.4993 4.0708 13.8696C4.63846 15.2401 5.60013 16.4117 6.8335 17.2358C8.06671 18.0598 9.51637 18.4994 10.9995 18.4995C12.9886 18.4995 14.8967 17.7097 16.3032 16.3032C17.7097 14.8967 18.4995 12.9886 18.4995 10.9995C18.4994 9.51637 18.0598 8.06671 17.2358 6.8335C16.4117 5.60013 15.2401 4.63846 13.8696 4.0708Z" stroke="black"/>
</g>
</g>
<defs>
<filter id="filter0_d_2_22" x="-2.021" y="1.979" width="28.0118" height="27.9967" filterUnits="userSpaceOnUse" color-interpolation-filters="sRGB">
<feFlood flood-opacity="0" result="BackgroundImageFix"/>
<feColorMatrix in="SourceAlpha" type="matrix" values="0 0 0 0 0 0 0 0 0 0 0 0 0 0 0 0 0 0 127 0" result="hardAlpha"/>
<feOffset dy="4"/>
<feGaussianBlur stdDeviation="2"/>
<feComposite in2="hardAlpha" operator="out"/>
<feColorMatrix type="matrix" values="0 0 0 0 0 0 0 0 0 0 0 0 0 0 0 0 0 0 0.25 0"/>
<feBlend mode="normal" in2="BackgroundImageFix" result="effect1_dropShadow_2_22"/>
<feBlend mode="normal" in="SourceGraphic" in2="effect1_dropShadow_2_22" result="shape"/>
</filter>
<linearGradient id="paint0_linear_2_22" x1="1.979" y1="1.979" x2="25.4288" y2="16.376" gradientUnits="userSpaceOnUse">
<stop stop-color="#F3F9FF"/>
<stop offset="1" stop-color="#F1F0FF"/>
</linearGradient>
<clipPath id="clip0_2_22">
<rect width="24" height="24" fill="white"/>
</clipPath>
</defs>
</svg>
