<svg width="13" height="13" viewBox="0 0 13 13" fill="none" xmlns="http://www.w3.org/2000/svg">
<path d="M8.375 5.25H6.5V3.375C6.5 3.20924 6.43415 3.05027 6.31694 2.93306C6.19973 2.81585 6.04076 2.75 5.875 2.75C5.70924 2.75 5.55027 2.81585 5.43306 2.93306C5.31585 3.05027 5.25 3.20924 5.25 3.375V5.25H3.375C3.20924 5.25 3.05027 5.31585 2.93306 5.43306C2.81585 5.55027 2.75 5.70924 2.75 5.875C2.75 6.04076 2.81585 6.19973 2.93306 6.31694C3.05027 6.43415 3.20924 6.5 3.375 6.5H5.25V8.375C5.25 8.54076 5.31585 8.69973 5.43306 8.81694C5.55027 8.93415 5.70924 9 5.875 9C6.04076 9 6.19973 8.93415 6.31694 8.81694C6.43415 8.69973 6.5 8.54076 6.5 8.375V6.5H8.375C8.54076 6.5 8.69973 6.43415 8.81694 6.31694C8.93415 6.19973 9 6.04076 9 5.875C9 5.70924 8.93415 5.55027 8.81694 5.43306C8.69973 5.31585 8.54076 5.25 8.375 5.25ZM12.5688 11.6813L10.25 9.38125C11.1501 8.25901 11.5859 6.83456 11.468 5.40081C11.3501 3.96706 10.6873 2.63299 9.61595 1.6729C8.54461 0.712818 7.14613 0.199695 5.70808 0.239045C4.27003 0.278396 2.9017 0.867227 1.88446 1.88446C0.867227 2.9017 0.278396 4.27003 0.239045 5.70808C0.199695 7.14613 0.712818 8.54461 1.6729 9.61595C2.63299 10.6873 3.96706 11.3501 5.40081 11.468C6.83456 11.5859 8.25901 11.1501 9.38125 10.25L11.6813 12.55C11.7394 12.6086 11.8085 12.6551 11.8846 12.6868C11.9608 12.7185 12.0425 12.7349 12.125 12.7349C12.2075 12.7349 12.2892 12.7185 12.3654 12.6868C12.4415 12.6551 12.5106 12.6086 12.5688 12.55C12.6814 12.4335 12.7444 12.2777 12.7444 12.1156C12.7444 11.9535 12.6814 11.7978 12.5688 11.6813ZM5.875 10.25C5.00971 10.25 4.16385 9.99341 3.44438 9.51268C2.72492 9.03195 2.16416 8.34867 1.83303 7.54924C1.50189 6.74981 1.41526 5.87015 1.58407 5.02148C1.75288 4.17281 2.16955 3.39326 2.78141 2.78141C3.39326 2.16955 4.17281 1.75288 5.02148 1.58407C5.87015 1.41526 6.74981 1.50189 7.54924 1.83303C8.34867 2.16416 9.03195 2.72492 9.51268 3.44438C9.99341 4.16385 10.25 5.00971 10.25 5.875C10.25 7.03532 9.78907 8.14812 8.96859 8.96859C8.14812 9.78907 7.03532 10.25 5.875 10.25Z" fill="#2F1AC4"/>
</svg>
