<svg width="11" height="11" viewBox="0 0 11 11" fill="none" xmlns="http://www.w3.org/2000/svg">
<g clip-path="url(#clip0_73_153)">
<path d="M5.49999 8.7085C5.59064 8.7085 5.67925 8.68162 5.75463 8.63125C5.83 8.58089 5.88874 8.50931 5.92343 8.42556C5.95812 8.34181 5.9672 8.24965 5.94952 8.16075C5.93183 8.07184 5.88818 7.99017 5.82408 7.92607C5.75998 7.86197 5.67831 7.81832 5.58941 7.80064C5.5005 7.78295 5.40834 7.79203 5.32459 7.82672C5.24084 7.86141 5.16926 7.92015 5.1189 7.99553C5.06854 8.0709 5.04166 8.15951 5.04166 8.25016C5.04166 8.37172 5.08994 8.4883 5.1759 8.57425C5.26185 8.66021 5.37843 8.7085 5.49999 8.7085ZM7.79166 8.7085C7.88231 8.7085 7.97092 8.68162 8.04629 8.63125C8.12167 8.58089 8.18041 8.50931 8.2151 8.42556C8.24979 8.34181 8.25887 8.24965 8.24118 8.16075C8.2235 8.07184 8.17985 7.99017 8.11575 7.92607C8.05165 7.86197 7.96998 7.81832 7.88107 7.80064C7.79217 7.78295 7.70001 7.79203 7.61626 7.82672C7.53251 7.86141 7.46093 7.92015 7.41057 7.99553C7.3602 8.0709 7.33332 8.15951 7.33332 8.25016C7.33332 8.37172 7.38161 8.4883 7.46757 8.57425C7.55352 8.66021 7.6701 8.7085 7.79166 8.7085ZM7.79166 6.87516C7.88231 6.87516 7.97092 6.84828 8.04629 6.79792C8.12167 6.74756 8.18041 6.67598 8.2151 6.59223C8.24979 6.50848 8.25887 6.41632 8.24118 6.32741C8.2235 6.23851 8.17985 6.15684 8.11575 6.09274C8.05165 6.02864 7.96998 5.98499 7.88107 5.9673C7.79217 5.94962 7.70001 5.95869 7.61626 5.99339C7.53251 6.02808 7.46093 6.08682 7.41057 6.16219C7.3602 6.23757 7.33332 6.32618 7.33332 6.41683C7.33332 6.53839 7.38161 6.65497 7.46757 6.74092C7.55352 6.82687 7.6701 6.87516 7.79166 6.87516ZM5.49999 6.87516C5.59064 6.87516 5.67925 6.84828 5.75463 6.79792C5.83 6.74756 5.88874 6.67598 5.92343 6.59223C5.95812 6.50848 5.9672 6.41632 5.94952 6.32741C5.93183 6.23851 5.88818 6.15684 5.82408 6.09274C5.75998 6.02864 5.67831 5.98499 5.58941 5.9673C5.5005 5.94962 5.40834 5.95869 5.32459 5.99339C5.24084 6.02808 5.16926 6.08682 5.1189 6.16219C5.06854 6.23757 5.04166 6.32618 5.04166 6.41683C5.04166 6.53839 5.08994 6.65497 5.1759 6.74092C5.26185 6.82687 5.37843 6.87516 5.49999 6.87516ZM8.70832 1.37516H8.24999V0.916829C8.24999 0.795272 8.2017 0.678693 8.11575 0.592739C8.02979 0.506785 7.91321 0.458496 7.79166 0.458496C7.6701 0.458496 7.55352 0.506785 7.46757 0.592739C7.38161 0.678693 7.33332 0.795272 7.33332 0.916829V1.37516H3.66666V0.916829C3.66666 0.795272 3.61837 0.678693 3.53241 0.592739C3.44646 0.506785 3.32988 0.458496 3.20832 0.458496C3.08677 0.458496 2.97019 0.506785 2.88423 0.592739C2.79828 0.678693 2.74999 0.795272 2.74999 0.916829V1.37516H2.29166C1.92698 1.37516 1.57725 1.52003 1.31938 1.77789C1.06152 2.03575 0.916656 2.38549 0.916656 2.75016V9.16683C0.916656 9.5315 1.06152 9.88124 1.31938 10.1391C1.57725 10.397 1.92698 10.5418 2.29166 10.5418H8.70832C9.073 10.5418 9.42273 10.397 9.68059 10.1391C9.93846 9.88124 10.0833 9.5315 10.0833 9.16683V2.75016C10.0833 2.38549 9.93846 2.03575 9.68059 1.77789C9.42273 1.52003 9.073 1.37516 8.70832 1.37516ZM9.16666 9.16683C9.16666 9.28839 9.11837 9.40497 9.03241 9.49092C8.94646 9.57688 8.82988 9.62516 8.70832 9.62516H2.29166C2.1701 9.62516 2.05352 9.57688 1.96757 9.49092C1.88161 9.40497 1.83332 9.28839 1.83332 9.16683V5.04183H9.16666V9.16683ZM9.16666 4.12516H1.83332V2.75016C1.83332 2.62861 1.88161 2.51203 1.96757 2.42607C2.05352 2.34012 2.1701 2.29183 2.29166 2.29183H2.74999V2.75016C2.74999 2.87172 2.79828 2.9883 2.88423 3.07425C2.97019 3.16021 3.08677 3.2085 3.20832 3.2085C3.32988 3.2085 3.44646 3.16021 3.53241 3.07425C3.61837 2.9883 3.66666 2.87172 3.66666 2.75016V2.29183H7.33332V2.75016C7.33332 2.87172 7.38161 2.9883 7.46757 3.07425C7.55352 3.16021 7.6701 3.2085 7.79166 3.2085C7.91321 3.2085 8.02979 3.16021 8.11575 3.07425C8.2017 2.9883 8.24999 2.87172 8.24999 2.75016V2.29183H8.70832C8.82988 2.29183 8.94646 2.34012 9.03241 2.42607C9.11837 2.51203 9.16666 2.62861 9.16666 2.75016V4.12516ZM3.20832 6.87516C3.29897 6.87516 3.38759 6.84828 3.46296 6.79792C3.53833 6.74756 3.59708 6.67598 3.63177 6.59223C3.66646 6.50848 3.67553 6.41632 3.65785 6.32741C3.64016 6.23851 3.59651 6.15684 3.53241 6.09274C3.46831 6.02864 3.38665 5.98499 3.29774 5.9673C3.20883 5.94962 3.11668 5.95869 3.03293 5.99339C2.94918 6.02808 2.8776 6.08682 2.82723 6.16219C2.77687 6.23757 2.74999 6.32618 2.74999 6.41683C2.74999 6.53839 2.79828 6.65497 2.88423 6.74092C2.97019 6.82687 3.08677 6.87516 3.20832 6.87516ZM3.20832 8.7085C3.29897 8.7085 3.38759 8.68162 3.46296 8.63125C3.53833 8.58089 3.59708 8.50931 3.63177 8.42556C3.66646 8.34181 3.67553 8.24965 3.65785 8.16075C3.64016 8.07184 3.59651 7.99017 3.53241 7.92607C3.46831 7.86197 3.38665 7.81832 3.29774 7.80064C3.20883 7.78295 3.11668 7.79203 3.03293 7.82672C2.94918 7.86141 2.8776 7.92015 2.82723 7.99553C2.77687 8.0709 2.74999 8.15951 2.74999 8.25016C2.74999 8.37172 2.79828 8.4883 2.88423 8.57425C2.97019 8.66021 3.08677 8.7085 3.20832 8.7085Z" fill="#FFA454"/>
</g>
<defs>
<clipPath id="clip0_73_153">
<rect width="11" height="11" fill="white"/>
</clipPath>
</defs>
</svg>
